<?xml version="1.0" standalone="no"?><!DOCTYPE svg PUBLIC "-//W3C//DTD SVG 1.1//EN" "http://www.w3.org/Graphics/SVG/1.1/DTD/svg11.dtd"><svg t="1716370913301" class="icon" viewBox="0 0 1024 1024" version="1.1" xmlns="http://www.w3.org/2000/svg" p-id="1105" xmlns:xlink="http://www.w3.org/1999/xlink" width="100" height="100"><path d="M369.60000031 855.36000031l-319.6000003-312.52000031c-13.12000032-12.88000031-19.03999969-30.36-17.5999997-47.35999969-0.79999969-14.32000032 3.64000031-28.8799997 13.23999938-40.60000031l4.44-4.8 319.48000031-312.55999969a60 60 0 0 1 79.87999969-3.6l5.44000031 4.99999969a59.35999969 59.35999969 0 0 1 3.19999969 79.44l-4.11999938 4.48000031L240.2 432.00000031 932 432.00000031a60 60 0 0 1 0 120l-700.96000031 0 222.92000062 218.04a59.35999969 59.35999969 0 0 1 4.95999938 79.35999938l-4.95999938 5.48000062a60 60 0 0 1-84.40000032 0.48z" fill="#ffffff" p-id="1106"></path></svg>